{
  "source": "C:\\Users\\Peter\\Desktop\\stuff\\MIUN\\quantitative_research\\video_compression\\videos\\BVI-HD\\BricksLeaves_1920x1080_60fps.mp4",
  "output": "C:\\Users\\Peter\\Desktop\\stuff\\MIUN\\quantitative_research\\video_compression\\compressed_videos\\BVI-HD\\vp9\\12\\BricksLeaves_1920x1080_60fps_vp9.webm",
  "codec": "vp9",
  "ok": "Input #0, mov,mp4,m4a,3gp,3g2,mj2, from 'C:\\Users\\Peter\\Desktop\\stuff\\MIUN\\quantitative_research\\video_compression\\videos\\BVI-HD\\BricksLeaves_1920x1080_60fps.mp4':\n  Metadata:\n    major_brand     : isom\n    minor_version   : 512\n    compatible_brands: isomiso2avc1mp41\n    encoder         : Lavf54.28.101\n  Duration: 00:00:05.00, start: 0.000000, bitrate: 524627 kb/s\n  Stream #0:0[0x1](und): Video: h264 (High 4:4:4 Predictive) (avc1 / 0x31637661), yuv420p(progressive), 1920x1080, 524622 kb/s, 60 fps, 60 tbr, 60 tbn (default)\n    Metadata:\n      handler_name    : VideoHandler\n      vendor_id       : [0][0][0][0]\n[out#0/webm @ 000001d33f899400] Codec AVOption b:a (set bitrate (in bits/s)) has not been used for any stream. The most likely reason is either wrong type (e.g. a video option with no video streams) or that it is a private option of some decoder which was not actually used for any stream.\nStream mapping:\n  Stream #0:0 -> #0:0 (h264 (native) -> vp9 (libvpx-vp9))\nPress [q] to stop, [?] for help\n[libvpx-vp9 @ 000001d33f8ab6c0] v1.15.2-100-g40561f514\nOutput #0, webm, to 'C:\\Users\\Peter\\Desktop\\stuff\\MIUN\\quantitative_research\\video_compression\\compressed_videos\\BVI-HD\\vp9\\12\\BricksLeaves_1920x1080_60fps_vp9.webm':\n  Metadata:\n    major_brand     : isom\n    minor_version   : 512\n    compatible_brands: isomiso2avc1mp41\n    encoder         : Lavf62.3.100\n  Stream #0:0(und): Video: vp9, yuv420p(tv, progressive), 1920x1080, q=2-31, 12000 kb/s, 60 fps, 1k tbn (default)\n    Metadata:\n      encoder         : Lavc62.11.100 libvpx-vp9\n      handler_name    : VideoHandler\n      vendor_id       : [0][0][0][0]\n    Side data:\n      cpb: bitrate max/min/avg: 0/0/0 buffer size: 12000000 vbv_delay: N/A\nframe=    0 fps=0.0 q=0.0 size=       0KiB time=N/A bitrate=N/A speed=N/A elapsed=0:00:01.70    \nframe=    0 fps=0.0 q=0.0 size=       0KiB time=N/A bitrate=N/A speed=N/A elapsed=0:00:02.26    \nframe=    2 fps=0.7 q=23.0 size=       1KiB time=00:00:00.03 bitrate= 151.9kbits/s speed=0.0117x elapsed=0:00:02.85    \nframe=    5 fps=1.5 q=39.0 size=       1KiB time=00:00:00.08 bitrate=  60.8kbits/s speed=0.0243x elapsed=0:00:03.42    \nframe=    8 fps=2.0 q=33.0 size=       1KiB time=00:00:00.11 bitrate=  43.4kbits/s speed=0.0293x elapsed=0:00:03.98    \nframe=   10 fps=2.2 q=32.0 size=       1KiB time=00:00:00.15 bitrate=  33.8kbits/s speed=0.0329x elapsed=0:00:04.56    \nframe=   12 fps=2.3 q=32.0 size=       1KiB time=00:00:00.20 bitrate=  25.3kbits/s speed=0.0382x elapsed=0:00:05.23    \nframe=   14 fps=2.4 q=32.0 size=       1KiB time=00:00:00.23 bitrate=  21.7kbits/s speed=0.0401x elapsed=0:00:05.82    \nframe=   18 fps=2.8 q=32.0 size=       1KiB time=00:00:00.30 bitrate=  16.9kbits/s speed=0.0471x elapsed=0:00:06.37    \nframe=   20 fps=2.9 q=33.0 size=       1KiB time=00:00:00.33 bitrate=  15.2kbits/s speed=0.0477x elapsed=0:00:06.98    \nframe=   21 fps=2.7 q=33.0 size=       1KiB time=00:00:00.35 bitrate=  14.5kbits/s speed=0.0458x elapsed=0:00:07.64    \nframe=   23 fps=2.8 q=33.0 size=       1KiB time=00:00:00.38 bitrate=  13.2kbits/s speed=0.0458x elapsed=0:00:08.36    \nframe=   24 fps=2.7 q=33.0 size=       1KiB time=00:00:00.40 bitrate=  12.7kbits/s speed=0.0445x elapsed=0:00:08.97    \nframe=   24 fps=2.5 q=33.0 size=       1KiB time=00:00:00.40 bitrate=  12.7kbits/s speed=0.0415x elapsed=0:00:09.63    \nframe=   26 fps=2.5 q=33.0 size=       1KiB time=00:00:00.43 bitrate=  11.7kbits/s speed=0.0423x elapsed=0:00:10.25    \nframe=   28 fps=2.6 q=34.0 size=       1KiB time=00:00:00.46 bitrate=  10.9kbits/s speed=0.0427x elapsed=0:00:10.92    \nframe=   29 fps=2.5 q=34.0 size=       1KiB time=00:00:00.48 bitrate=  10.5kbits/s speed=0.0419x elapsed=0:00:11.54    \nframe=   31 fps=2.6 q=35.0 size=       1KiB time=00:00:00.51 bitrate=   9.8kbits/s speed=0.0426x elapsed=0:00:12.12    \nframe=   33 fps=2.6 q=35.0 size=       1KiB time=00:00:00.55 bitrate=   9.2kbits/s speed=0.0432x elapsed=0:00:12.72    \nframe=   35 fps=2.6 q=36.0 size=       1KiB time=00:00:00.58 bitrate=   8.7kbits/s speed=0.0437x elapsed=0:00:13.33    \nframe=   36 fps=2.6 q=36.0 size=       1KiB time=00:00:00.60 bitrate=   8.4kbits/s speed=0.0429x elapsed=0:00:13.99    \nframe=   37 fps=2.5 q=19.0 size=       1KiB time=00:00:00.61 bitrate=   8.2kbits/s speed=0.0414x elapsed=0:00:14.89    \nframe=   39 fps=2.5 q=35.0 size=       1KiB time=00:00:00.65 bitrate=   7.8kbits/s speed=0.0416x elapsed=0:00:15.63    \nframe=   41 fps=2.5 q=36.0 size=       1KiB time=00:00:00.68 bitrate=   7.4kbits/s speed=0.0418x elapsed=0:00:16.36    \nframe=   44 fps=2.6 q=36.0 size=       1KiB time=00:00:00.71 bitrate=   7.1kbits/s speed=0.0422x elapsed=0:00:17.00    \nframe=   47 fps=2.7 q=37.0 size=       1KiB time=00:00:00.76 bitrate=   6.6kbits/s speed=0.0433x elapsed=0:00:17.70    \nframe=   48 fps=2.6 q=37.0 size=       1KiB time=00:00:00.80 bitrate=   6.3kbits/s speed=0.0435x elapsed=0:00:18.39    \nframe=   50 fps=2.6 q=35.0 size=       1KiB time=00:00:00.83 bitrate=   6.1kbits/s speed=0.0439x elapsed=0:00:18.98    \nframe=   53 fps=2.7 q=36.0 size=       1KiB time=00:00:00.86 bitrate=   5.8kbits/s speed=0.0441x elapsed=0:00:19.65    \nframe=   55 fps=2.7 q=36.0 size=       1KiB time=00:00:00.90 bitrate=   5.6kbits/s speed=0.0439x elapsed=0:00:20.51    \nframe=   57 fps=2.7 q=36.0 size=       1KiB time=00:00:00.95 bitrate=   5.3kbits/s speed=0.0444x elapsed=0:00:21.38    \nframe=   59 fps=2.7 q=36.0 size=       1KiB time=00:00:00.98 bitrate=   5.1kbits/s speed=0.0443x elapsed=0:00:22.20    \nframe=   60 fps=2.6 q=36.0 size=       1KiB time=00:00:01.00 bitrate=   5.1kbits/s speed=0.0437x elapsed=0:00:22.87    \nframe=   61 fps=2.6 q=22.0 size=       1KiB time=00:00:01.01 bitrate=   5.0kbits/s speed=0.0432x elapsed=0:00:23.51    \nframe=   63 fps=2.6 q=36.0 size=       1KiB time=00:00:01.05 bitrate=   4.8kbits/s speed=0.0437x elapsed=0:00:24.02    \nframe=   65 fps=2.6 q=36.0 size=       1KiB time=00:00:01.08 bitrate=   4.7kbits/s speed=0.0442x elapsed=0:00:24.53    \nframe=   66 fps=2.6 q=36.0 size=       1KiB time=00:00:01.10 bitrate=   4.6kbits/s speed=0.0439x elapsed=0:00:25.05    \nframe=   69 fps=2.7 q=36.0 size=       1KiB time=00:00:01.15 bitrate=   4.4kbits/s speed=0.045x elapsed=0:00:25.57    \nframe=   71 fps=2.7 q=36.0 size=       1KiB time=00:00:01.18 bitrate=   4.3kbits/s speed=0.0454x elapsed=0:00:26.08    \nframe=   72 fps=2.7 q=36.0 size=       1KiB time=00:00:01.20 bitrate=   4.2kbits/s speed=0.0451x elapsed=0:00:26.60    \nframe=   73 fps=2.7 q=21.0 size=       1KiB time=00:00:01.21 bitrate=   4.2kbits/s speed=0.0449x elapsed=0:00:27.12    \nframe=   74 fps=2.7 q=37.0 size=       1KiB time=00:00:01.23 bitrate=   4.1kbits/s speed=0.0446x elapsed=0:00:27.63    \nframe=   77 fps=2.7 q=37.0 size=       1KiB time=00:00:01.28 bitrate=   3.9kbits/s speed=0.0456x elapsed=0:00:28.14    \nframe=   79 fps=2.8 q=37.0 size=       1KiB time=00:00:01.31 bitrate=   3.8kbits/s speed=0.0459x elapsed=0:00:28.66    \nframe=   80 fps=2.7 q=37.0 size=       1KiB time=00:00:01.33 bitrate=   3.8kbits/s speed=0.0457x elapsed=0:00:29.17    \nframe=   82 fps=2.8 q=37.0 size=       1KiB time=00:00:01.36 bitrate=   3.7kbits/s speed=0.046x elapsed=0:00:29.69    \nframe=   84 fps=2.8 q=37.0 size=       1KiB time=00:00:01.40 bitrate=   3.6kbits/s speed=0.0463x elapsed=0:00:30.21    \nframe=   84 fps=2.7 q=37.0 size=       1KiB time=00:00:01.40 bitrate=   3.6kbits/s speed=0.0456x elapsed=0:00:30.73    \nframe=   86 fps=2.8 q=37.0 size=       1KiB time=00:00:01.43 bitrate=   3.5kbits/s speed=0.0459x elapsed=0:00:31.24    \nframe=   88 fps=2.8 q=37.0 size=       1KiB time=00:00:01.46 bitrate=   3.5kbits/s speed=0.0462x elapsed=0:00:31.76    \nframe=   89 fps=2.8 q=37.0 size=       1KiB time=00:00:01.48 bitrate=   3.4kbits/s speed=0.046x elapsed=0:00:32.27    \nframe=   91 fps=2.8 q=37.0 size=       1KiB time=00:00:01.51 bitrate=   3.3kbits/s speed=0.0463x elapsed=0:00:32.79    \nframe=   93 fps=2.8 q=37.0 size=       1KiB time=00:00:01.55 bitrate=   3.3kbits/s speed=0.0465x elapsed=0:00:33.31    \nframe=   95 fps=2.8 q=37.0 size=       1KiB time=00:00:01.58 bitrate=   3.2kbits/s speed=0.0468x elapsed=0:00:33.82    \nframe=   96 fps=2.8 q=37.0 size=       1KiB time=00:00:01.60 bitrate=   3.2kbits/s speed=0.0466x elapsed=0:00:34.33    \nframe=   98 fps=2.8 q=37.0 size=       1KiB time=00:00:01.63 bitrate=   3.1kbits/s speed=0.0469x elapsed=0:00:34.85    \nframe=  100 fps=2.8 q=37.0 size=       1KiB time=00:00:01.66 bitrate=   3.0kbits/s speed=0.0471x elapsed=0:00:35.37    \nframe=  102 fps=2.8 q=37.0 size=       1KiB time=00:00:01.70 bitrate=   3.0kbits/s speed=0.0474x elapsed=0:00:35.88    \nframe=  104 fps=2.9 q=37.0 size=       1KiB time=00:00:01.73 bitrate=   2.9kbits/s speed=0.0476x elapsed=0:00:36.40    \nframe=  107 fps=2.9 q=37.0 size=       1KiB time=00:00:01.78 bitrate=   2.8kbits/s speed=0.0483x elapsed=0:00:36.91    \nframe=  108 fps=2.9 q=38.0 size=       1KiB time=00:00:01.80 bitrate=   2.8kbits/s speed=0.0481x elapsed=0:00:37.42    \nframe=  111 fps=2.9 q=38.0 size=       1KiB time=00:00:01.85 bitrate=   2.7kbits/s speed=0.0488x elapsed=0:00:37.94    \nframe=  114 fps=3.0 q=38.0 size=       1KiB time=00:00:01.90 bitrate=   2.7kbits/s speed=0.0494x elapsed=0:00:38.47    \nframe=  116 fps=3.0 q=38.0 size=       1KiB time=00:00:01.93 bitrate=   2.6kbits/s speed=0.0496x elapsed=0:00:38.97    \nframe=  118 fps=3.0 q=38.0 size=       1KiB time=00:00:01.96 bitrate=   2.6kbits/s speed=0.0498x elapsed=0:00:39.48    \nframe=  119 fps=3.0 q=23.0 size=       1KiB time=00:00:01.98 bitrate=   2.6kbits/s speed=0.0496x elapsed=0:00:40.00    \nframe=  121 fps=3.0 q=37.0 size=       1KiB time=00:00:02.01 bitrate=   2.5kbits/s speed=0.0498x elapsed=0:00:40.52    \nframe=  123 fps=3.0 q=37.0 size=       1KiB time=00:00:02.05 bitrate=   2.5kbits/s speed=0.05x elapsed=0:00:41.03    \nframe=  125 fps=3.0 q=37.0 size=       1KiB time=00:00:02.08 bitrate=   2.4kbits/s speed=0.0501x elapsed=0:00:41.55    \nframe=  127 fps=3.0 q=37.0 size=       1KiB time=00:00:02.11 bitrate=   2.4kbits/s speed=0.0503x elapsed=0:00:42.07    \nframe=  128 fps=3.0 q=37.0 size=       1KiB time=00:00:02.13 bitrate=   2.4kbits/s speed=0.0501x elapsed=0:00:42.58    \nframe=  130 fps=3.0 q=38.0 size=    3072KiB time=00:00:02.16 bitrate=11615.0kbits/s speed=0.0503x elapsed=0:00:43.10    \nframe=  132 fps=3.0 q=39.0 size=    3072KiB time=00:00:02.20 bitrate=11439.0kbits/s speed=0.0504x elapsed=0:00:43.62    \nframe=  134 fps=3.0 q=39.0 size=    3072KiB time=00:00:02.23 bitrate=11268.3kbits/s speed=0.0506x elapsed=0:00:44.13    \nframe=  136 fps=3.0 q=39.0 size=    3072KiB time=00:00:02.26 bitrate=11102.6kbits/s speed=0.0508x elapsed=0:00:44.65    \nframe=  139 fps=3.1 q=39.0 size=    3072KiB time=00:00:02.31 bitrate=10862.9kbits/s speed=0.0513x elapsed=0:00:45.16    \nframe=  139 fps=3.0 q=39.0 size=    3072KiB time=00:00:02.31 bitrate=10862.9kbits/s speed=0.0507x elapsed=0:00:45.67    \nframe=  142 fps=3.1 q=39.0 size=    3072KiB time=00:00:02.36 bitrate=10633.4kbits/s speed=0.0512x elapsed=0:00:46.19    \nframe=  145 fps=3.1 q=39.0 size=    3072KiB time=00:00:02.41 bitrate=10413.4kbits/s speed=0.0517x elapsed=0:00:46.70    \nframe=  147 fps=3.1 q=39.0 size=    3072KiB time=00:00:02.45 bitrate=10271.8kbits/s speed=0.0519x elapsed=0:00:47.23    \nframe=  150 fps=3.1 q=39.0 size=    3072KiB time=00:00:02.50 bitrate=10066.3kbits/s speed=0.0524x elapsed=0:00:47.74    \nframe=  151 fps=3.1 q=38.0 size=    3072KiB time=00:00:02.51 bitrate=9999.7kbits/s speed=0.0522x elapsed=0:00:48.25    \nframe=  152 fps=3.1 q=22.0 size=    3072KiB time=00:00:02.53 bitrate=9933.9kbits/s speed=0.0519x elapsed=0:00:48.77    \nframe=  154 fps=3.1 q=37.0 size=    3072KiB time=00:00:02.56 bitrate=9804.9kbits/s speed=0.0521x elapsed=0:00:49.28    \nframe=  157 fps=3.2 q=38.0 size=    3072KiB time=00:00:02.61 bitrate=9617.5kbits/s speed=0.0525x elapsed=0:00:49.80    \nframe=  159 fps=3.2 q=38.0 size=    3072KiB time=00:00:02.65 bitrate=9496.5kbits/s speed=0.0527x elapsed=0:00:50.32    \nframe=  161 fps=3.2 q=38.0 size=    3072KiB time=00:00:02.68 bitrate=9378.6kbits/s speed=0.0528x elapsed=0:00:50.83    \nframe=  163 fps=3.2 q=38.0 size=    3072KiB time=00:00:02.71 bitrate=9263.5kbits/s speed=0.0529x elapsed=0:00:51.35    \nframe=  163 fps=3.1 q=38.0 size=    3072KiB time=00:00:02.71 bitrate=9263.5kbits/s speed=0.0524x elapsed=0:00:51.87    \nframe=  165 fps=3.1 q=38.0 size=    3072KiB time=00:00:02.75 bitrate=9151.2kbits/s speed=0.0525x elapsed=0:00:52.38    \nframe=  166 fps=3.1 q=38.0 size=    3072KiB time=00:00:02.76 bitrate=9096.1kbits/s speed=0.0523x elapsed=0:00:52.90    \nframe=  167 fps=3.1 q=38.0 size=    3072KiB time=00:00:02.78 bitrate=9041.6kbits/s speed=0.0521x elapsed=0:00:53.42    \nframe=  168 fps=3.1 q=38.0 size=    3072KiB time=00:00:02.80 bitrate=8987.8kbits/s speed=0.0519x elapsed=0:00:53.94    \nframe=  169 fps=3.1 q=38.0 size=    3072KiB time=00:00:02.81 bitrate=8934.6kbits/s speed=0.0517x elapsed=0:00:54.45    \nframe=  170 fps=3.1 q=38.0 size=    3072KiB time=00:00:02.83 bitrate=8882.1kbits/s speed=0.0515x elapsed=0:00:54.97    \nframe=  171 fps=3.1 q=38.0 size=    3072KiB time=00:00:02.85 bitrate=8830.1kbits/s speed=0.0514x elapsed=0:00:55.48    \nframe=  173 fps=3.1 q=38.0 size=    3072KiB time=00:00:02.88 bitrate=8728.0kbits/s speed=0.0515x elapsed=0:00:55.99    \nframe=  174 fps=3.1 q=39.0 size=    3072KiB time=00:00:02.90 bitrate=8677.9kbits/s speed=0.0513x elapsed=0:00:56.50    \nframe=  175 fps=3.1 q=39.0 size=    3072KiB time=00:00:02.91 bitrate=8628.3kbits/s speed=0.0511x elapsed=0:00:57.02    \nframe=  176 fps=3.1 q=22.0 size=    3072KiB time=00:00:02.93 bitrate=8579.3kbits/s speed=0.051x elapsed=0:00:57.53    \nframe=  177 fps=3.0 q=39.0 size=    3072KiB time=00:00:02.95 bitrate=8530.8kbits/s speed=0.0508x elapsed=0:00:58.06    \nframe=  178 fps=3.0 q=39.0 size=    3072KiB time=00:00:02.96 bitrate=8482.9kbits/s speed=0.0506x elapsed=0:00:58.58    \nframe=  179 fps=3.0 q=39.0 size=    3072KiB time=00:00:02.98 bitrate=8435.5kbits/s speed=0.0505x elapsed=0:00:59.09    \nframe=  181 fps=3.0 q=39.0 size=    3072KiB time=00:00:03.01 bitrate=8342.3kbits/s speed=0.0506x elapsed=0:00:59.61    \nframe=  183 fps=3.0 q=39.0 size=    3072KiB time=00:00:03.05 bitrate=8251.1kbits/s speed=0.0507x elapsed=0:01:00.13    \nframe=  185 fps=3.1 q=38.0 size=    3072KiB time=00:00:03.08 bitrate=8161.9kbits/s speed=0.0508x elapsed=0:01:00.64    \nframe=  187 fps=3.1 q=37.0 size=    3072KiB time=00:00:03.11 bitrate=8074.6kbits/s speed=0.051x elapsed=0:01:01.16    \nframe=  188 fps=3.0 q=21.0 size=    3072KiB time=00:00:03.13 bitrate=8031.6kbits/s speed=0.0508x elapsed=0:01:01.67    \nframe=  190 fps=3.1 q=37.0 size=    3072KiB time=00:00:03.16 bitrate=7947.1kbits/s speed=0.0509x elapsed=0:01:02.21    \nframe=  192 fps=3.1 q=37.0 size=    3072KiB time=00:00:03.20 bitrate=7864.3kbits/s speed=0.051x elapsed=0:01:02.75    \nframe=  194 fps=3.1 q=37.0 size=    3072KiB time=00:00:03.23 bitrate=7783.2kbits/s speed=0.0511x elapsed=0:01:03.30    \nframe=  197 fps=3.1 q=37.0 size=    3072KiB time=00:00:03.28 bitrate=7664.7kbits/s speed=0.0514x elapsed=0:01:03.82    \nframe=  199 fps=3.1 q=37.0 size=    3072KiB time=00:00:03.31 bitrate=7587.7kbits/s speed=0.0515x elapsed=0:01:04.40    \nframe=  200 fps=3.1 q=21.0 size=    3072KiB time=00:00:03.33 bitrate=7549.7kbits/s speed=0.0513x elapsed=0:01:04.92    \nframe=  203 fps=3.1 q=38.0 size=    3072KiB time=00:00:03.38 bitrate=7438.2kbits/s speed=0.0517x elapsed=0:01:05.43    \nframe=  205 fps=3.1 q=38.0 size=    3072KiB time=00:00:03.41 bitrate=7365.6kbits/s speed=0.0518x elapsed=0:01:05.96    \nframe=  207 fps=3.1 q=38.0 size=    3072KiB time=00:00:03.45 bitrate=7294.4kbits/s speed=0.0519x elapsed=0:01:06.53    \nframe=  209 fps=3.1 q=37.0 size=    3072KiB time=00:00:03.48 bitrate=7224.6kbits/s speed=0.0519x elapsed=0:01:07.09    \nframe=  211 fps=3.1 q=37.0 size=    3072KiB time=00:00:03.51 bitrate=7156.2kbits/s speed=0.052x elapsed=0:01:07.63    \nframe=  212 fps=3.1 q=22.0 size=    3072KiB time=00:00:03.53 bitrate=7122.4kbits/s speed=0.0518x elapsed=0:01:08.14    \nframe=  215 fps=3.1 q=36.0 size=    3072KiB time=00:00:03.58 bitrate=7023.0kbits/s speed=0.0522x elapsed=0:01:08.69    \nframe=  217 fps=3.1 q=36.0 size=    3072KiB time=00:00:03.61 bitrate=6958.3kbits/s speed=0.0522x elapsed=0:01:09.22    \nframe=  219 fps=3.1 q=36.0 size=    3072KiB time=00:00:03.65 bitrate=6894.7kbits/s speed=0.0523x elapsed=0:01:09.76    \nframe=  221 fps=3.1 q=36.0 size=    3072KiB time=00:00:03.68 bitrate=6832.4kbits/s speed=0.0524x elapsed=0:01:10.32    \nframe=  223 fps=3.1 q=37.0 size=    3072KiB time=00:00:03.71 bitrate=6771.1kbits/s speed=0.0525x elapsed=0:01:10.84    \nframe=  224 fps=3.1 q=20.0 size=    3072KiB time=00:00:03.73 bitrate=6740.8kbits/s speed=0.0523x elapsed=0:01:11.40    \nframe=  226 fps=3.1 q=38.0 size=    3072KiB time=00:00:03.76 bitrate=6681.2kbits/s speed=0.0524x elapsed=0:01:11.94    \nframe=  229 fps=3.2 q=38.0 size=    3072KiB time=00:00:03.81 bitrate=6593.7kbits/s speed=0.0527x elapsed=0:01:12.47    \nframe=  231 fps=3.2 q=39.0 size=    3072KiB time=00:00:03.85 bitrate=6536.6kbits/s speed=0.0527x elapsed=0:01:13.00    \nframe=  233 fps=3.2 q=39.0 size=    3072KiB time=00:00:03.88 bitrate=6480.5kbits/s speed=0.0528x elapsed=0:01:13.52    \nframe=  235 fps=3.2 q=40.0 size=    3072KiB time=00:00:03.91 bitrate=6425.3kbits/s speed=0.0529x elapsed=0:01:14.04    \nframe=  235 fps=3.2 q=40.0 size=    3072KiB time=00:00:03.91 bitrate=6425.3kbits/s speed=0.0525x elapsed=0:01:14.58    \nframe=  238 fps=3.2 q=42.0 size=    3072KiB time=00:00:03.95 bitrate=6371.1kbits/s speed=0.0526x elapsed=0:01:15.11    \nframe=  240 fps=3.2 q=43.0 size=    3072KiB time=00:00:04.00 bitrate=6291.5kbits/s speed=0.0528x elapsed=0:01:15.71    \nframe=  242 fps=3.2 q=44.0 size=    3072KiB time=00:00:04.03 bitrate=6239.5kbits/s speed=0.0529x elapsed=0:01:16.22    \nframe=  244 fps=3.2 q=45.0 size=    3072KiB time=00:00:04.06 bitrate=6188.3kbits/s speed=0.053x elapsed=0:01:16.74    \nframe=  245 fps=3.2 q=45.0 size=    3072KiB time=00:00:04.08 bitrate=6163.1kbits/s speed=0.0528x elapsed=0:01:17.26    \nframe=  247 fps=3.2 q=44.0 size=    3072KiB time=00:00:04.11 bitrate=6113.2kbits/s speed=0.0529x elapsed=0:01:17.78    \nframe=  248 fps=3.2 q=45.0 size=    3072KiB time=00:00:04.13 bitrate=6088.5kbits/s speed=0.0528x elapsed=0:01:18.30    \nframe=  250 fps=3.2 q=46.0 size=    3072KiB time=00:00:04.16 bitrate=6039.8kbits/s speed=0.0529x elapsed=0:01:18.82    \nframe=  252 fps=3.2 q=47.0 size=    3072KiB time=00:00:04.20 bitrate=5991.9kbits/s speed=0.0529x elapsed=0:01:19.33    \nframe=  253 fps=3.2 q=47.0 size=    3072KiB time=00:00:04.21 bitrate=5968.2kbits/s speed=0.0528x elapsed=0:01:19.85    \nframe=  255 fps=3.2 q=48.0 size=    3072KiB time=00:00:04.25 bitrate=5921.4kbits/s speed=0.0529x elapsed=0:01:20.39    \nframe=  256 fps=3.2 q=49.0 size=    3072KiB time=00:00:04.26 bitrate=5898.2kbits/s speed=0.0527x elapsed=0:01:20.93    \nframe=  257 fps=3.2 q=28.0 size=    3072KiB time=00:00:04.28 bitrate=5875.3kbits/s speed=0.0526x elapsed=0:01:21.45    \nframe=  258 fps=3.1 q=49.0 size=    6400KiB time=00:00:04.30 bitrate=12192.7kbits/s speed=0.0524x elapsed=0:01:21.98    \nframe=  259 fps=3.1 q=49.0 size=    6400KiB time=00:00:04.31 bitrate=12145.7kbits/s speed=0.0523x elapsed=0:01:22.51    \nframe=  261 fps=3.1 q=51.0 size=    6400KiB time=00:00:04.35 bitrate=12052.6kbits/s speed=0.0524x elapsed=0:01:23.02    \nframe=  262 fps=3.1 q=51.0 size=    6400KiB time=00:00:04.36 bitrate=12006.6kbits/s speed=0.0523x elapsed=0:01:23.54    \nframe=  264 fps=3.1 q=52.0 size=    6400KiB time=00:00:04.40 bitrate=11915.6kbits/s speed=0.0523x elapsed=0:01:24.05    \nframe=  265 fps=3.1 q=52.0 size=    6400KiB time=00:00:04.41 bitrate=11870.7kbits/s speed=0.0522x elapsed=0:01:24.58    \nframe=  267 fps=3.1 q=52.0 size=    6400KiB time=00:00:04.45 bitrate=11781.8kbits/s speed=0.0523x elapsed=0:01:25.10    \nframe=  268 fps=3.1 q=52.0 size=    6400KiB time=00:00:04.46 bitrate=11737.8kbits/s speed=0.0521x elapsed=0:01:25.69    \nframe=  269 fps=3.1 q=33.0 size=    6400KiB time=00:00:04.48 bitrate=11694.2kbits/s speed=0.052x elapsed=0:01:26.22    \nframe=  270 fps=3.1 q=54.0 size=    6400KiB time=00:00:04.50 bitrate=11650.8kbits/s speed=0.0519x elapsed=0:01:26.74    \nframe=  272 fps=3.1 q=54.0 size=    6400KiB time=00:00:04.53 bitrate=11565.2kbits/s speed=0.052x elapsed=0:01:27.26    \nframe=  273 fps=3.1 q=54.0 size=    6400KiB time=00:00:04.55 bitrate=11522.8kbits/s speed=0.0518x elapsed=0:01:27.77    \nframe=  274 fps=3.1 q=54.0 size=    6400KiB time=00:00:04.56 bitrate=11480.8kbits/s speed=0.0517x elapsed=0:01:28.28    \nframe=  276 fps=3.1 q=54.0 size=    6400KiB time=00:00:04.60 bitrate=11397.6kbits/s speed=0.0518x elapsed=0:01:28.80    \nframe=  276 fps=3.1 q=54.0 size=    6400KiB time=00:00:04.60 bitrate=11397.6kbits/s speed=0.0515x elapsed=0:01:29.35    \nframe=  276 fps=3.1 q=54.0 size=    6400KiB time=00:00:04.60 bitrate=11397.6kbits/s speed=0.0512x elapsed=0:01:29.87    \nframe=  276 fps=3.1 q=54.0 size=    6400KiB time=00:00:04.60 bitrate=11397.6kbits/s speed=0.0509x elapsed=0:01:30.40    \nframe=  276 fps=3.0 q=54.0 size=    6400KiB time=00:00:04.60 bitrate=11397.6kbits/s speed=0.0506x elapsed=0:01:30.93    \nframe=  276 fps=3.0 q=54.0 size=    6400KiB time=00:00:04.60 bitrate=11397.6kbits/s speed=0.0503x elapsed=0:01:31.44    \nframe=  276 fps=3.0 q=54.0 size=    6400KiB time=00:00:04.60 bitrate=11397.6kbits/s speed=0.05x elapsed=0:01:31.96    \nframe=  276 fps=3.0 q=54.0 size=    6400KiB time=00:00:04.60 bitrate=11397.6kbits/s speed=0.0497x elapsed=0:01:32.47    \nframe=  276 fps=3.0 q=54.0 size=    6400KiB time=00:00:04.60 bitrate=11397.6kbits/s speed=0.0495x elapsed=0:01:32.99    \nframe=  276 fps=3.0 q=54.0 size=    6400KiB time=00:00:04.60 bitrate=11397.6kbits/s speed=0.0492x elapsed=0:01:33.51    \nframe=  276 fps=2.9 q=54.0 size=    6400KiB time=00:00:04.60 bitrate=11397.6kbits/s speed=0.0489x elapsed=0:01:34.02    \nframe=  276 fps=2.9 q=54.0 size=    6400KiB time=00:00:04.60 bitrate=11397.6kbits/s speed=0.0487x elapsed=0:01:34.54    \nframe=  276 fps=2.9 q=54.0 size=    6400KiB time=00:00:04.60 bitrate=11397.6kbits/s speed=0.0483x elapsed=0:01:35.20    \nframe=  276 fps=2.9 q=54.0 size=    6400KiB time=00:00:04.60 bitrate=11397.6kbits/s speed=0.048x elapsed=0:01:35.74    \nframe=  276 fps=2.9 q=54.0 size=    6400KiB time=00:00:04.60 bitrate=11397.6kbits/s speed=0.0478x elapsed=0:01:36.27    \nframe=  276 fps=2.9 q=54.0 size=    6400KiB time=00:00:04.60 bitrate=11397.6kbits/s speed=0.0475x elapsed=0:01:36.78    \nframe=  276 fps=2.8 q=54.0 size=    6400KiB time=00:00:04.60 bitrate=11397.6kbits/s speed=0.0473x elapsed=0:01:37.30    \nframe=  276 fps=2.8 q=54.0 size=    6400KiB time=00:00:04.60 bitrate=11397.6kbits/s speed=0.047x elapsed=0:01:37.82    \nframe=  276 fps=2.8 q=54.0 size=    6400KiB time=00:00:04.60 bitrate=11397.6kbits/s speed=0.0468x elapsed=0:01:38.33    \nframe=  276 fps=2.8 q=54.0 size=    6400KiB time=00:00:04.60 bitrate=11397.6kbits/s speed=0.0465x elapsed=0:01:38.84    \n[out#0/webm @ 000001d33f899400] video:7549KiB audio:0KiB subtitle:0KiB other streams:0KiB global headers:0KiB muxing overhead: 0.038887%\nframe=  300 fps=3.0 q=53.0 Lsize=    7552KiB time=00:00:05.00 bitrate=12373.1kbits/s speed=0.0505x elapsed=0:01:38.98    \n",
  "seconds": 101.05783414840698,
  "probe_out": {}
}